<svg width="17" height="17" viewBox="0 0 17 17" fill="none" xmlns="http://www.w3.org/2000/svg">
<path d="M8.01003 3.33702C9.01114 2.3359 9.83873 2.0022 11.0134 2.0022C11.9869 2.0022 12.9206 2.38894 13.609 3.07734C14.2974 3.76573 14.6841 4.6994 14.6841 5.67295C14.6841 7.20132 13.6763 8.36928 12.6819 9.3437L8.01003 14.0156L3.33817 9.3437C2.33705 8.37596 1.33594 7.20799 1.33594 5.67295C1.33594 4.6994 1.72268 3.76573 2.41108 3.07734C3.09948 2.38894 4.03314 2.0022 5.00669 2.0022C6.18133 2.0022 7.00892 2.3359 8.01003 3.33702ZM8.01003 3.33702L6.03457 5.31255C5.89896 5.44717 5.79134 5.60729 5.7179 5.78369C5.64445 5.96009 5.60664 6.14928 5.60664 6.34036C5.60664 6.53144 5.64445 6.72062 5.7179 6.89702C5.79134 7.07342 5.89896 7.23355 6.03457 7.36817C6.58184 7.91544 7.45615 7.93547 8.0368 7.41489L9.41833 6.14681C9.76462 5.83259 10.2155 5.65853 10.6831 5.65853C11.1507 5.65853 11.6015 5.83259 11.9478 6.14681L13.9233 7.92212M12.0145 10.0111L10.6797 8.67629M10.0123 12.0133L8.67744 10.6785" stroke="black" stroke-width="1.3" stroke-linecap="round" stroke-linejoin="round"/>
</svg>
