<svg width="17" height="17" viewBox="0 0 17 17" fill="none" xmlns="http://www.w3.org/2000/svg">
<path d="M8.01003 7.34152V10.0112M9.34485 8.67634H6.67521M10.6797 4.00448V2.66966C10.6797 2.31564 10.539 1.97613 10.2887 1.7258C10.0384 1.47547 9.69887 1.33484 9.34485 1.33484H6.67521C6.3212 1.33484 5.98168 1.47547 5.73135 1.7258C5.48103 1.97613 5.34039 2.31564 5.34039 2.66966V4.00448M12.0145 4.00448V13.3482M4.00557 4.00448V13.3482M2.67076 4.00448H13.3493C14.0865 4.00448 14.6841 4.60209 14.6841 5.33929V12.0134C14.6841 12.7506 14.0865 13.3482 13.3493 13.3482H2.67076C1.93356 13.3482 1.33594 12.7506 1.33594 12.0134V5.33929C1.33594 4.60209 1.93356 4.00448 2.67076 4.00448Z" stroke="black" stroke-width="1.3" stroke-linecap="round" stroke-linejoin="round"/>
</svg>
