<svg width="186" height="51" viewBox="0 0 186 51" fill="none" xmlns="http://www.w3.org/2000/svg">
<path d="M0.578373 37.4856H5.60275C5.90221 37.4856 6.16041 37.7142 6.17716 38.0132C6.43837 42.6763 10.1864 45.0739 15.3724 45.0739C20.677 45.0739 23.9928 43.306 23.9928 39.6958C23.9928 37.1907 22.2979 35.2014 18.2458 34.3172L10.731 32.9172C4.54217 31.6646 1.15286 27.9074 1.15286 22.3814C1.15286 16.1191 6.53096 11.6247 14.8565 11.6247C23.1047 11.6247 29.0486 16.0234 29.3582 23.1892C29.3722 23.513 29.1038 23.7814 28.7797 23.7814H23.8651C23.5746 23.7814 23.3218 23.5662 23.2932 23.2772C22.8539 18.8423 19.403 16.8558 14.8565 16.8558C10.2886 16.8558 7.12075 18.6977 7.12075 22.3814C7.12075 25.3288 9.5519 27.0232 13.6779 27.6865L19.5719 28.7916C26.6449 30.4125 30.2551 33.2121 30.2551 39.6958C30.2551 46.6213 23.477 50.5999 15.3724 50.5999C6.6775 50.5999 0.505898 45.9742 0.00115448 38.0902C-0.0198755 37.7618 0.249219 37.4856 0.578373 37.4856Z" fill="black"/>
<path d="M30.8442 31.1493C30.8442 20.2451 36.2228 11.6247 47.8637 11.6247C58.4735 11.6247 64.1465 19.5079 64.1465 29.9702V32.4146C64.1465 32.733 63.8884 32.9911 63.57 32.9911H37.9151C37.5926 32.9911 37.3271 33.2573 37.3363 33.5797C37.5305 40.4072 41.132 45.0739 47.9377 45.0739C52.6987 45.0739 56.1573 43.155 57.3226 39.4491C57.3994 39.2046 57.6181 39.0325 57.8744 39.0325H62.9413C63.312 39.0325 63.5802 39.3763 63.5045 39.7392C62.1411 46.272 55.6921 50.5999 47.9377 50.5999C36.8121 50.5999 30.8442 42.2009 30.8442 31.1493ZM57.1472 27.8335C57.4707 27.8335 57.7379 27.5662 57.7263 27.2429C57.5223 21.5575 54.3456 17.1502 47.8637 17.1502C41.0369 17.1502 37.8481 21.6119 37.4353 27.2222C37.411 27.553 37.6812 27.8335 38.0129 27.8335H57.1472Z" fill="black"/>
<path d="M68.2587 12.2879H72.5321C72.831 12.2879 73.0804 12.5164 73.1064 12.8142L73.5762 18.1819H73.8711C75.8604 14.3507 79.6915 11.6247 85.512 11.6247C93.8375 11.6247 98.7003 16.8558 98.7003 25.4758V49.3602C98.7003 49.6786 98.4422 49.9367 98.1238 49.9367H93.0875C92.7691 49.9367 92.511 49.6786 92.511 49.3602V26.434C92.511 20.5395 89.785 17.1502 83.8176 17.1502C77.5548 17.1502 73.8711 21.5712 73.8711 29.16V49.3602C73.8711 49.6786 73.613 49.9367 73.2946 49.9367H68.2587C67.9404 49.9367 67.6823 49.6786 67.6823 49.3602V12.8644C67.6823 12.546 67.9404 12.2879 68.2587 12.2879Z" fill="black"/>
<path d="M101.499 31.1493C101.499 19.4344 107.32 11.6247 118.519 11.6247C128.332 11.6247 133.201 17.2655 133.938 24.5526C133.972 24.8895 133.699 25.1814 133.361 25.1814H128.323C128.027 25.1814 127.787 24.9552 127.752 24.6613C127.188 19.9629 123.779 17.1502 118.519 17.1502C110.783 17.1502 107.762 23.413 107.762 31.1493C107.762 39.0325 110.783 45.1479 118.519 45.1479C123.927 45.1479 127.205 42.4669 127.887 37.7688C127.929 37.4819 128.167 37.2641 128.457 37.2641H133.494C133.838 37.2641 134.111 37.564 134.069 37.9049C133.127 45.5087 128.126 50.5999 118.593 50.5999C107.32 50.5999 101.499 43.0111 101.499 31.1493Z" fill="black"/>
<path d="M136.497 4.27343C136.497 1.69483 137.897 -6.10352e-05 140.77 -6.10352e-05C143.57 -6.10352e-05 145.043 1.69483 145.043 4.27343C145.043 6.9255 143.57 8.6204 140.77 8.6204C137.897 8.6204 136.497 6.9255 136.497 4.27343ZM138.252 12.288H143.288C143.606 12.288 143.865 12.5461 143.865 12.8645V49.3603C143.865 49.6787 143.606 49.9368 143.288 49.9368H138.252C137.934 49.9368 137.676 49.6787 137.676 49.3603V12.8645C137.676 12.5461 137.934 12.288 138.252 12.288Z" fill="black"/>
<path d="M146.664 38.959C146.664 32.6228 151.158 27.1707 162.21 27.1707C165.794 27.1707 168.541 27.7085 170.774 28.3C171.138 28.3966 171.493 28.1195 171.493 27.7423V24.739C171.493 20.5395 168.914 16.9293 162.799 16.9293C157.536 16.9293 154.813 19.7365 154.502 23.1228C154.475 23.4145 154.224 23.6339 153.931 23.6339H149.098C148.773 23.6339 148.504 23.3655 148.519 23.0416C148.841 16.1527 154.775 11.6247 162.799 11.6247C172.451 11.6247 177.535 17.4451 177.535 24.5916V49.3602C177.535 49.6786 177.277 49.9367 176.958 49.9367H172.834C172.534 49.9367 172.285 49.7069 172.26 49.4081L171.861 44.632H171.567C169.283 48.4632 165.083 50.5999 159.779 50.5999C151.601 50.5999 146.664 45.5162 146.664 38.959ZM171.493 35.3488V33.865C171.493 33.6089 171.323 33.3797 171.077 33.3074C168.139 32.4429 165.376 32.107 162.21 32.107C156.094 32.107 152.927 34.4646 152.927 38.8851C152.927 42.6428 155.432 45.4423 160.884 45.4423C167.294 45.4423 171.493 40.8009 171.493 35.3488Z" fill="black"/>
<path d="M166.115 27.3987C171.499 27.7985 178.7 29.6647 183.899 31.899C184.51 32.1711 185.146 32.5577 185.428 33.1549C186.062 34.4261 184.964 36.2701 183.478 36.2715C183.039 36.3031 182.548 36.2223 182.099 36.1148C174.767 34.3694 167.112 31.4615 159.517 32.2204" fill="black"/>
</svg>
