<svg width="16" height="16" viewBox="0 0 16 16" fill="none" xmlns="http://www.w3.org/2000/svg">
<path d="M9.33268 1.33331H3.99935C3.64573 1.33331 3.30659 1.47379 3.05654 1.72384C2.80649 1.97389 2.66602 2.31302 2.66602 2.66665V13.3333C2.66602 13.6869 2.80649 14.0261 3.05654 14.2761C3.30659 14.5262 3.64573 14.6666 3.99935 14.6666H11.9993C12.353 14.6666 12.6921 14.5262 12.9422 14.2761C13.1922 14.0261 13.3327 13.6869 13.3327 13.3333V5.33331M9.33268 1.33331L13.3327 5.33331M9.33268 1.33331V5.33331H13.3327M10.666 8.66665H5.33268M10.666 11.3333H5.33268M6.66602 5.99998H5.33268" stroke="black" stroke-width="1.3" stroke-linecap="round" stroke-linejoin="round"/>
</svg>
