<svg width="321" height="152" viewBox="0 0 321 152" fill="none" xmlns="http://www.w3.org/2000/svg">
<path d="M2.36816 10V3.88672H2.34863L0.483398 5.22949V4.30176L2.3584 2.9541H3.21777V10H2.36816ZM7.55371 10.1221C6.49902 10.1221 5.65918 9.55078 5.22461 8.53516C4.99023 7.99316 4.87793 7.3584 4.87793 6.59668C4.87793 4.22363 5.88867 2.83203 7.6123 2.83203C8.80859 2.83203 9.72656 3.5498 9.95117 4.6582H9.05762C8.86719 4.01855 8.30078 3.6084 7.60254 3.6084C6.42578 3.6084 5.75684 4.65332 5.72754 6.52832H5.74219C6.05957 5.83984 6.83594 5.38574 7.70996 5.38574C9.05273 5.38574 10.0488 6.37695 10.0488 7.71484C10.0488 9.10645 8.99902 10.1221 7.55371 10.1221ZM7.54395 9.34082C8.44238 9.34082 9.15527 8.63281 9.15527 7.74414C9.15527 6.82129 8.49121 6.15723 7.55859 6.15723C6.62598 6.15723 5.9375 6.82129 5.9375 7.71973C5.9375 8.62305 6.64062 9.34082 7.54395 9.34082ZM13.457 10.1172C11.8115 10.1172 10.8594 8.70117 10.8594 6.47461C10.8594 4.26758 11.8213 2.83691 13.457 2.83691C15.0928 2.83691 16.0449 4.25781 16.0449 6.46973C16.0449 8.69629 15.0977 10.1172 13.457 10.1172ZM13.457 9.35059C14.5557 9.35059 15.1611 8.23242 15.1611 6.47461C15.1611 4.74121 14.5459 3.6084 13.457 3.6084C12.3682 3.6084 11.7432 4.75098 11.7432 6.46973C11.7432 8.22754 12.3535 9.35059 13.457 9.35059ZM17.2119 11.499H16.4844L18.9795 2.9541H19.707L17.2119 11.499ZM22.0752 10V3.88672H22.0557L20.1904 5.22949V4.30176L22.0654 2.9541H22.9248V10H22.0752ZM27.1777 10.1172C25.5322 10.1172 24.5801 8.70117 24.5801 6.47461C24.5801 4.26758 25.542 2.83691 27.1777 2.83691C28.8135 2.83691 29.7656 4.25781 29.7656 6.46973C29.7656 8.69629 28.8184 10.1172 27.1777 10.1172ZM27.1777 9.35059C28.2764 9.35059 28.8818 8.23242 28.8818 6.47461C28.8818 4.74121 28.2666 3.6084 27.1777 3.6084C26.0889 3.6084 25.4639 4.75098 25.4639 6.46973C25.4639 8.22754 26.0742 9.35059 27.1777 9.35059ZM33.2422 10.1172C31.5967 10.1172 30.6445 8.70117 30.6445 6.47461C30.6445 4.26758 31.6064 2.83691 33.2422 2.83691C34.8779 2.83691 35.8301 4.25781 35.8301 6.46973C35.8301 8.69629 34.8828 10.1172 33.2422 10.1172ZM33.2422 9.35059C34.3408 9.35059 34.9463 8.23242 34.9463 6.47461C34.9463 4.74121 34.3311 3.6084 33.2422 3.6084C32.1533 3.6084 31.5283 4.75098 31.5283 6.46973C31.5283 8.22754 32.1387 9.35059 33.2422 9.35059Z" fill="#45413E"/>
<path d="M2.36816 46.3334V40.2201H2.34863L0.483398 41.5629V40.6351L2.3584 39.2875H3.21777V46.3334H2.36816ZM8.35449 46.3334V44.8685H4.81445V44.0726C5.41504 42.9594 6.24023 41.6752 7.90527 39.2875H9.2041V44.097H10.2002V44.8685H9.2041V46.3334H8.35449ZM5.68359 44.0775V44.097H8.35449V40.0199H8.33984C7.00684 41.9242 6.24023 43.101 5.68359 44.0775ZM13.5254 46.4506C11.8799 46.4506 10.9277 45.0345 10.9277 42.808C10.9277 40.601 11.8896 39.1703 13.5254 39.1703C15.1611 39.1703 16.1133 40.5912 16.1133 42.8031C16.1133 45.0297 15.166 46.4506 13.5254 46.4506ZM13.5254 45.684C14.624 45.684 15.2295 44.5658 15.2295 42.808C15.2295 41.0746 14.6143 39.9418 13.5254 39.9418C12.4365 39.9418 11.8115 41.0844 11.8115 42.8031C11.8115 44.5609 12.4219 45.684 13.5254 45.684ZM17.2803 47.8324H16.5527L19.0479 39.2875H19.7754L17.2803 47.8324ZM22.5879 46.4506C21.3867 46.4506 20.4639 45.7279 20.249 44.6244H21.1426C21.3281 45.264 21.8994 45.684 22.5977 45.684C23.7695 45.684 24.4434 44.6195 24.4678 42.7494H24.4629C24.458 42.7494 24.458 42.7494 24.4531 42.7494C24.1553 43.4476 23.3838 43.9017 22.4854 43.9017C21.1426 43.9017 20.1465 42.9105 20.1465 41.5726C20.1465 40.181 21.1963 39.1654 22.6416 39.1654C23.7012 39.1654 24.541 39.7367 24.9707 40.7474C25.2051 41.2894 25.3174 41.9242 25.3174 42.6908C25.3174 45.0638 24.3115 46.4506 22.5879 46.4506ZM22.6367 43.1302C23.5693 43.1302 24.2627 42.4662 24.2627 41.5677C24.2627 40.6644 23.5596 39.9564 22.6514 39.9564C21.748 39.9564 21.0352 40.6595 21.0352 41.5433C21.0352 42.4613 21.7139 43.1302 22.6367 43.1302ZM28.7988 46.4506C27.1533 46.4506 26.2012 45.0345 26.2012 42.808C26.2012 40.601 27.1631 39.1703 28.7988 39.1703C30.4346 39.1703 31.3867 40.5912 31.3867 42.8031C31.3867 45.0297 30.4395 46.4506 28.7988 46.4506ZM28.7988 45.684C29.8975 45.684 30.5029 44.5658 30.5029 42.808C30.5029 41.0746 29.8877 39.9418 28.7988 39.9418C27.71 39.9418 27.085 41.0844 27.085 42.8031C27.085 44.5609 27.6953 45.684 28.7988 45.684Z" fill="#45413E"/>
<path d="M2.36816 82.6666V76.5533H2.34863L0.483398 77.8961V76.9684L2.3584 75.6207H3.21777V82.6666H2.36816ZM4.96094 77.652C4.96094 76.4215 5.95703 75.5035 7.28516 75.5035C8.54492 75.5035 9.53613 76.358 9.53613 77.4371C9.53613 78.2233 9.17969 78.8092 8.00293 80.025L6.2207 81.8658V81.8854H9.65332V82.6666H5.00488V82.0612L7.48535 79.4489C8.43262 78.4528 8.65723 78.0768 8.65723 77.4908C8.65723 76.8121 8.03711 76.2701 7.26074 76.2701C6.43555 76.2701 5.81055 76.8658 5.81055 77.652V77.6569H4.96094V77.652ZM13.1348 82.7838C11.4893 82.7838 10.5371 81.3678 10.5371 79.1412C10.5371 76.9342 11.499 75.5035 13.1348 75.5035C14.7705 75.5035 15.7227 76.9244 15.7227 79.1364C15.7227 81.3629 14.7754 82.7838 13.1348 82.7838ZM13.1348 82.0172C14.2334 82.0172 14.8389 80.899 14.8389 79.1412C14.8389 77.4078 14.2236 76.275 13.1348 76.275C12.0459 76.275 11.4209 77.4176 11.4209 79.1364C11.4209 80.8942 12.0312 82.0172 13.1348 82.0172ZM16.8896 84.1656H16.1621L18.6572 75.6207H19.3848L16.8896 84.1656ZM22.3779 82.7838C20.8887 82.7838 19.8242 81.9391 19.8242 80.7623C19.8242 79.8834 20.4297 79.1608 21.3379 78.9508V78.9313C20.5762 78.6969 20.1025 78.0963 20.1025 77.3541C20.1025 76.2897 21.0693 75.5035 22.3779 75.5035C23.6963 75.5035 24.6484 76.2848 24.6484 77.359C24.6484 78.0914 24.1846 78.6871 23.418 78.9313V78.9508C24.3311 79.1656 24.9365 79.8883 24.9365 80.7623C24.9365 81.944 23.8721 82.7838 22.3779 82.7838ZM22.3779 82.0172C23.3496 82.0172 24.0381 81.4655 24.0381 80.6989C24.0381 79.9225 23.3496 79.3756 22.3779 79.3756C21.4111 79.3756 20.7178 79.9274 20.7178 80.6989C20.7178 81.4655 21.4111 82.0172 22.3779 82.0172ZM22.3779 78.6041C23.1982 78.6041 23.7793 78.1207 23.7793 77.4371C23.7793 76.7438 23.2031 76.2604 22.3779 76.2604C21.5527 76.2604 20.9766 76.7487 20.9766 77.4371C20.9766 78.1207 21.5527 78.6041 22.3779 78.6041ZM28.418 82.7838C26.7725 82.7838 25.8203 81.3678 25.8203 79.1412C25.8203 76.9342 26.7822 75.5035 28.418 75.5035C30.0537 75.5035 31.0059 76.9244 31.0059 79.1364C31.0059 81.3629 30.0586 82.7838 28.418 82.7838ZM28.418 82.0172C29.5166 82.0172 30.1221 80.899 30.1221 79.1412C30.1221 77.4078 29.5068 76.275 28.418 76.275C27.3291 76.275 26.7041 77.4176 26.7041 79.1364C26.7041 80.8942 27.3145 82.0172 28.418 82.0172Z" fill="#45413E"/>
<path d="M2.8125 119.117C1.61133 119.117 0.688477 118.395 0.473633 117.291H1.36719C1.55273 117.931 2.12402 118.351 2.82227 118.351C3.99414 118.351 4.66797 117.286 4.69238 115.416H4.6875C4.68262 115.416 4.68262 115.416 4.67773 115.416C4.37988 116.114 3.6084 116.568 2.70996 116.568C1.36719 116.568 0.371094 115.577 0.371094 114.239C0.371094 112.848 1.4209 111.832 2.86621 111.832C3.92578 111.832 4.76562 112.403 5.19531 113.414C5.42969 113.956 5.54199 114.591 5.54199 115.357C5.54199 117.73 4.53613 119.117 2.8125 119.117ZM2.86133 115.797C3.79395 115.797 4.4873 115.133 4.4873 114.234C4.4873 113.331 3.78418 112.623 2.87598 112.623C1.97266 112.623 1.25977 113.326 1.25977 114.21C1.25977 115.128 1.93848 115.797 2.86133 115.797ZM9.02344 119.117C7.37793 119.117 6.42578 117.701 6.42578 115.475C6.42578 113.268 7.3877 111.837 9.02344 111.837C10.6592 111.837 11.6113 113.258 11.6113 115.47C11.6113 117.696 10.6641 119.117 9.02344 119.117ZM9.02344 118.351C10.1221 118.351 10.7275 117.232 10.7275 115.475C10.7275 113.741 10.1123 112.608 9.02344 112.608C7.93457 112.608 7.30957 113.751 7.30957 115.47C7.30957 117.228 7.91992 118.351 9.02344 118.351ZM12.7783 120.499H12.0508L14.5459 111.954H15.2734L12.7783 120.499ZM18.3936 119.122C17.3389 119.122 16.499 118.551 16.0645 117.535C15.8301 116.993 15.7178 116.358 15.7178 115.597C15.7178 113.224 16.7285 111.832 18.4521 111.832C19.6484 111.832 20.5664 112.55 20.791 113.658H19.8975C19.707 113.019 19.1406 112.608 18.4424 112.608C17.2656 112.608 16.5967 113.653 16.5674 115.528H16.582C16.8994 114.84 17.6758 114.386 18.5498 114.386C19.8926 114.386 20.8887 115.377 20.8887 116.715C20.8887 118.106 19.8389 119.122 18.3936 119.122ZM18.3838 118.341C19.2822 118.341 19.9951 117.633 19.9951 116.744C19.9951 115.821 19.3311 115.157 18.3984 115.157C17.4658 115.157 16.7773 115.821 16.7773 116.72C16.7773 117.623 17.4805 118.341 18.3838 118.341ZM24.2969 119.117C22.6514 119.117 21.6992 117.701 21.6992 115.475C21.6992 113.268 22.6611 111.837 24.2969 111.837C25.9326 111.837 26.8848 113.258 26.8848 115.47C26.8848 117.696 25.9375 119.117 24.2969 119.117ZM24.2969 118.351C25.3955 118.351 26.001 117.232 26.001 115.475C26.001 113.741 25.3857 112.608 24.2969 112.608C23.208 112.608 22.583 113.751 22.583 115.47C22.583 117.228 23.1934 118.351 24.2969 118.351Z" fill="#45413E"/>
<path d="M44.7607 149V141.916H42.2041V141.25H48.0586V141.916H45.4966V149H44.7607ZM49.6646 149.097C48.4292 149.097 47.6934 148.302 47.6934 146.991V143.414H48.4077V146.873C48.4077 147.91 48.9233 148.463 49.8687 148.463C50.8462 148.463 51.4907 147.765 51.4907 146.723V143.414H52.2051V149H51.4907V148.049H51.4746C51.1899 148.651 50.5669 149.097 49.6646 149.097ZM55.6909 149.102C54.1226 149.102 53.1504 147.99 53.1504 146.223V146.218C53.1504 144.467 54.1387 143.312 55.6318 143.312C57.125 143.312 58.0649 144.429 58.0649 146.1V146.379H53.8701C53.8916 147.711 54.606 148.468 55.707 148.468C56.5288 148.468 57.0981 148.055 57.2808 147.448L57.2915 147.399H57.9951L57.9844 147.453C57.791 148.409 56.8994 149.102 55.6909 149.102ZM55.6265 143.946C54.6758 143.946 53.9668 144.628 53.8809 145.815H57.3506C57.27 144.596 56.5825 143.946 55.6265 143.946ZM61.3145 149V148.484L64.0537 145.605C65.1655 144.451 65.4395 143.983 65.4395 143.307V143.296C65.4341 142.42 64.7466 141.771 63.8013 141.771C62.7646 141.771 62.0127 142.474 61.9912 143.382L61.9858 143.425H61.2769V143.376C61.2983 142.082 62.3887 141.126 63.7852 141.126C65.1655 141.126 66.1699 142.061 66.1699 143.264V143.274C66.1699 144.107 65.7832 144.741 64.4082 146.159L62.335 148.318V148.345H66.3687V149H61.3145ZM67.9531 149L71.5464 141.926V141.905H67.228V141.25H72.2769V141.937L68.7319 149H67.9531Z" fill="#45413E"/>
<path d="M129.428 149V141.916H126.871V141.25H132.726V141.916H130.164V149H129.428ZM134.332 149.097C133.096 149.097 132.36 148.302 132.36 146.991V143.414H133.075V146.873C133.075 147.91 133.59 148.463 134.536 148.463C135.513 148.463 136.158 147.765 136.158 146.723V143.414H136.872V149H136.158V148.049H136.142C135.857 148.651 135.234 149.097 134.332 149.097ZM140.358 149.102C138.79 149.102 137.817 147.99 137.817 146.223V146.218C137.817 144.467 138.806 143.312 140.299 143.312C141.792 143.312 142.732 144.429 142.732 146.1V146.379H138.537C138.559 147.711 139.273 148.468 140.374 148.468C141.196 148.468 141.765 148.055 141.948 147.448L141.958 147.399H142.662L142.651 147.453C142.458 148.409 141.566 149.102 140.358 149.102ZM140.293 143.946C139.343 143.946 138.634 144.628 138.548 145.815H142.018C141.937 144.596 141.25 143.946 140.293 143.946ZM148.49 149.124C146.932 149.124 145.933 148.243 145.815 147.05L145.81 146.991H146.519L146.524 147.04C146.631 147.877 147.362 148.479 148.49 148.479C149.607 148.479 150.396 147.824 150.396 146.905V146.895C150.396 145.879 149.634 145.299 148.404 145.299H147.469V144.671H148.372C149.403 144.671 150.123 144.059 150.123 143.205V143.194C150.123 142.324 149.483 141.771 148.463 141.771C147.464 141.771 146.771 142.334 146.685 143.156L146.68 143.21H145.971L145.976 143.156C146.094 141.964 147.05 141.126 148.463 141.126C149.892 141.126 150.864 141.953 150.864 143.108V143.119C150.864 144.075 150.198 144.746 149.209 144.945V144.966C150.364 145.058 151.143 145.777 151.143 146.878V146.889C151.143 148.173 150.021 149.124 148.49 149.124Z" fill="#45413E"/>
<path d="M209.094 149V141.916H206.537V141.25H212.392V141.916H209.83V149H209.094ZM213.998 149.097C212.762 149.097 212.026 148.302 212.026 146.991V143.414H212.741V146.873C212.741 147.91 213.256 148.463 214.202 148.463C215.179 148.463 215.824 147.765 215.824 146.723V143.414H216.538V149H215.824V148.049H215.808C215.523 148.651 214.9 149.097 213.998 149.097ZM220.024 149.102C218.456 149.102 217.483 147.99 217.483 146.223V146.218C217.483 144.467 218.472 143.312 219.965 143.312C221.458 143.312 222.398 144.429 222.398 146.1V146.379H218.203C218.225 147.711 218.939 148.468 220.04 148.468C220.862 148.468 221.431 148.055 221.614 147.448L221.625 147.399H222.328L222.317 147.453C222.124 148.409 221.232 149.102 220.024 149.102ZM219.959 143.946C219.009 143.946 218.3 144.628 218.214 145.815H221.684C221.603 144.596 220.916 143.946 219.959 143.946ZM227.597 149V142.034H227.576L225.497 143.43V142.684L227.586 141.25H228.306V149H227.597ZM232.888 149.124C231.137 149.124 230.089 147.582 230.089 145.133V145.117C230.089 142.662 231.137 141.126 232.888 141.126C234.639 141.126 235.691 142.667 235.691 145.117V145.133C235.691 147.587 234.639 149.124 232.888 149.124ZM232.888 148.479C234.188 148.479 234.956 147.185 234.956 145.133V145.117C234.956 143.054 234.188 141.776 232.888 141.776C231.588 141.776 230.825 143.06 230.825 145.117V145.133C230.825 147.19 231.588 148.479 232.888 148.479Z" fill="#45413E"/>
<path d="M292.637 149V142.286H290.263V141.25H296.209V142.286H293.84V149H292.637ZM297.944 149.113C296.703 149.113 295.994 148.312 295.994 147.013V143.35H297.154V146.787C297.154 147.641 297.552 148.114 298.357 148.114C299.174 148.114 299.7 147.528 299.7 146.647V143.35H300.866V149H299.7V148.151H299.673C299.378 148.721 298.803 149.113 297.944 149.113ZM304.427 149.113C302.767 149.113 301.763 147.979 301.763 146.196V146.191C301.763 144.424 302.783 143.242 304.368 143.242C305.952 143.242 306.924 144.381 306.924 146.078V146.47H302.923C302.944 147.539 303.53 148.162 304.454 148.162C305.141 148.162 305.598 147.808 305.743 147.383L305.759 147.34H306.86L306.849 147.399C306.667 148.296 305.796 149.113 304.427 149.113ZM304.373 144.193C303.621 144.193 303.041 144.703 302.939 145.648H305.775C305.678 144.671 305.13 144.193 304.373 144.193ZM312.048 149V142.442H312.021L309.997 143.838V142.7L312.038 141.25H313.225V149H312.048ZM315.545 149L318.988 142.292V142.265H314.9V141.25H320.175V142.292L316.807 149H315.545Z" fill="#45413E"/>
<line x1="308.5" y1="49" x2="308.5" y2="137" stroke="black" stroke-opacity="0.6" stroke-dasharray="4 4"/>
<line x1="42" y1="115.5" x2="321" y2="115.5" stroke="black" stroke-opacity="0.1" stroke-dasharray="2 2"/>
<line x1="42" y1="78.5" x2="321" y2="78.5" stroke="black" stroke-opacity="0.1" stroke-dasharray="2 2"/>
<line x1="42" y1="41.5" x2="321" y2="41.5" stroke="black" stroke-opacity="0.1" stroke-dasharray="2 2"/>
<line x1="42" y1="5.5" x2="321" y2="5.5" stroke="black" stroke-opacity="0.1" stroke-dasharray="2 2"/>
<path d="M42 65.5303C45.0056 68.9212 49.0807 74.046 55.4095 76.2811C64.928 79.6426 70.7614 71.1149 80.8414 71.6571C91.4073 72.2254 100.493 79.6335 106.736 79.6335C124.191 79.6335 121.005 58.7345 135.173 56.1668C143.395 54.6768 148.196 59.8174 156.443 58.4788C173.23 55.7544 171.809 29.7203 188.811 29.3478C198.22 29.1416 202.06 37.775 211.469 37.5553C225.076 37.2376 227.27 20.7188 240.715 18.597C264.807 14.7949 265.812 59.3352 290.076 56.8604C301.153 55.7307 308 45.2655 308 45.2655" stroke="black" stroke-width="2"/>
</svg>
