<svg width="16" height="16" viewBox="0 0 16 16" fill="none" xmlns="http://www.w3.org/2000/svg">
<path d="M7.33398 13.3334H2.66732C2.3137 13.3334 1.97456 13.1929 1.72451 12.9429C1.47446 12.6928 1.33398 12.3537 1.33398 12.0001V3.3334C1.33398 2.97978 1.47446 2.64064 1.72451 2.39059C1.97456 2.14054 2.3137 2.00006 2.66732 2.00006H5.26732C5.49031 1.99788 5.71029 2.05166 5.90712 2.15648C6.10395 2.2613 6.27134 2.41381 6.39398 2.60006L6.93398 3.40006C7.05539 3.58442 7.22067 3.73574 7.41499 3.84047C7.6093 3.94519 7.82658 4.00003 8.04732 4.00006H13.334C13.6876 4.00006 14.0267 4.14054 14.2768 4.39059C14.5268 4.64064 14.6673 4.97978 14.6673 5.3334V6.3334M9.26728 11.6334C8.46728 10.8334 8.50728 9.76672 9.13395 9.14672C9.28442 8.99595 9.46315 8.87633 9.65991 8.79471C9.85667 8.71309 10.0676 8.67108 10.2806 8.67108C10.4936 8.67108 10.7046 8.71309 10.9013 8.79471C11.0981 8.87633 11.2768 8.99595 11.4273 9.14672L11.6673 9.37339L11.8939 9.14672C12.0441 8.99451 12.2229 8.87352 12.42 8.79074C12.6172 8.70795 12.8287 8.66501 13.0426 8.6644C13.2564 8.66378 13.4682 8.70549 13.6658 8.78712C13.8634 8.86876 14.0429 8.98871 14.1939 9.14006C14.8273 9.77339 14.8606 10.8267 14.0606 11.6334L11.6673 14.0001L9.26728 11.6334Z" stroke="black" stroke-width="1.3" stroke-linecap="round" stroke-linejoin="round"/>
</svg>
