<svg width="16" height="16" viewBox="0 0 16 16" fill="none" xmlns="http://www.w3.org/2000/svg">
<g clip-path="url(#clip0_481_2138)">
<path d="M7.99935 10C9.10392 10 9.99935 9.10459 9.99935 8.00002C9.99935 6.89545 9.10392 6.00002 7.99935 6.00002C6.89478 6.00002 5.99935 6.89545 5.99935 8.00002C5.99935 9.10459 6.89478 10 7.99935 10Z" stroke="black" stroke-width="1.3" stroke-linecap="round" stroke-linejoin="round"/>
<path d="M12.9327 10C12.8439 10.2011 12.8175 10.4241 12.8567 10.6404C12.8959 10.8567 12.999 11.0562 13.1527 11.2134L13.1927 11.2534C13.3167 11.3772 13.415 11.5242 13.4821 11.6861C13.5492 11.848 13.5837 12.0215 13.5837 12.1967C13.5837 12.3719 13.5492 12.5454 13.4821 12.7073C13.415 12.8691 13.3167 13.0162 13.1927 13.14C13.0689 13.264 12.9218 13.3623 12.7599 13.4294C12.5981 13.4965 12.4246 13.5311 12.2493 13.5311C12.0741 13.5311 11.9006 13.4965 11.7388 13.4294C11.5769 13.3623 11.4298 13.264 11.306 13.14L11.266 13.1C11.1089 12.9463 10.9093 12.8432 10.6931 12.804C10.4768 12.7648 10.2538 12.7913 10.0527 12.88C9.8555 12.9645 9.68734 13.1048 9.56889 13.2837C9.45044 13.4626 9.38687 13.6722 9.38602 13.8867V14C9.38602 14.3536 9.24554 14.6928 8.99549 14.9428C8.74544 15.1929 8.4063 15.3334 8.05268 15.3334C7.69906 15.3334 7.35992 15.1929 7.10987 14.9428C6.85982 14.6928 6.71935 14.3536 6.71935 14V13.94C6.71419 13.7194 6.64276 13.5053 6.51436 13.3258C6.38595 13.1463 6.20651 13.0095 5.99935 12.9334C5.79827 12.8446 5.57522 12.8181 5.35896 12.8573C5.14269 12.8966 4.94313 12.9997 4.78602 13.1534L4.74602 13.1934C4.62218 13.3173 4.47513 13.4157 4.31327 13.4828C4.1514 13.5499 3.9779 13.5844 3.80268 13.5844C3.62746 13.5844 3.45396 13.5499 3.2921 13.4828C3.13023 13.4157 2.98318 13.3173 2.85935 13.1934C2.73538 13.0695 2.63703 12.9225 2.56994 12.7606C2.50284 12.5987 2.4683 12.4252 2.4683 12.25C2.4683 12.0748 2.50284 11.9013 2.56994 11.7394C2.63703 11.5776 2.73538 11.4305 2.85935 11.3067L2.89935 11.2667C3.05304 11.1096 3.15614 10.91 3.19535 10.6937C3.23456 10.4775 3.20809 10.2544 3.11935 10.0534C3.03484 9.85617 2.89452 9.68801 2.71566 9.56956C2.5368 9.45111 2.32721 9.38754 2.11268 9.38669H1.99935C1.64573 9.38669 1.30659 9.24621 1.05654 8.99616C0.806491 8.74611 0.666016 8.40698 0.666016 8.05335C0.666016 7.69973 0.806491 7.36059 1.05654 7.11054C1.30659 6.8605 1.64573 6.72002 1.99935 6.72002H2.05935C2.28001 6.71486 2.49402 6.64343 2.67355 6.51503C2.85308 6.38662 2.98983 6.20718 3.06602 6.00002C3.15476 5.79894 3.18123 5.57589 3.14202 5.35963C3.10281 5.14336 2.99971 4.94381 2.84602 4.78669L2.80602 4.74669C2.68205 4.62286 2.5837 4.4758 2.5166 4.31394C2.4495 4.15208 2.41497 3.97857 2.41497 3.80335C2.41497 3.62813 2.4495 3.45463 2.5166 3.29277C2.5837 3.1309 2.68205 2.98385 2.80602 2.86002C2.92985 2.73605 3.0769 2.63771 3.23876 2.57061C3.40063 2.50351 3.57413 2.46897 3.74935 2.46897C3.92457 2.46897 4.09807 2.50351 4.25994 2.57061C4.4218 2.63771 4.56885 2.73605 4.69268 2.86002L4.73268 2.90002C4.8898 3.05371 5.08936 3.15681 5.30562 3.19602C5.52189 3.23524 5.74494 3.20876 5.94602 3.12002H5.99935C6.19653 3.03551 6.36469 2.89519 6.48314 2.71633C6.60159 2.53747 6.66516 2.32788 6.66602 2.11335V2.00002C6.66602 1.6464 6.80649 1.30726 7.05654 1.05721C7.30659 0.807163 7.64573 0.666687 7.99935 0.666687C8.35297 0.666687 8.69211 0.807163 8.94216 1.05721C9.19221 1.30726 9.33268 1.6464 9.33268 2.00002V2.06002C9.33354 2.27454 9.3971 2.48414 9.51555 2.663C9.634 2.84186 9.80217 2.98218 9.99935 3.06669C10.2004 3.15543 10.4235 3.1819 10.6397 3.14269C10.856 3.10348 11.0556 3.00038 11.2127 2.84669L11.2527 2.80669C11.3765 2.68272 11.5236 2.58437 11.6854 2.51727C11.8473 2.45017 12.0208 2.41564 12.196 2.41564C12.3712 2.41564 12.5447 2.45017 12.7066 2.51727C12.8685 2.58437 13.0155 2.68272 13.1393 2.80669C13.2633 2.93052 13.3617 3.07757 13.4288 3.23943C13.4959 3.4013 13.5304 3.5748 13.5304 3.75002C13.5304 3.92524 13.4959 4.09874 13.4288 4.26061C13.3617 4.42247 13.2633 4.56952 13.1393 4.69335L13.0993 4.73335C12.9457 4.89047 12.8426 5.09003 12.8033 5.30629C12.7641 5.52256 12.7906 5.74561 12.8793 5.94669V6.00002C12.9639 6.1972 13.1042 6.36536 13.283 6.48382C13.4619 6.60227 13.6715 6.66583 13.886 6.66669H13.9993C14.353 6.66669 14.6921 6.80716 14.9422 7.05721C15.1922 7.30726 15.3327 7.6464 15.3327 8.00002C15.3327 8.35364 15.1922 8.69278 14.9422 8.94283C14.6921 9.19288 14.353 9.33335 13.9993 9.33335H13.9393C13.7248 9.33421 13.5152 9.39777 13.3364 9.51622C13.1575 9.63468 13.0172 9.80284 12.9327 10Z" stroke="black" stroke-width="1.3" stroke-linecap="round" stroke-linejoin="round"/>
</g>
<defs>
<clipPath id="clip0_481_2138">
<rect width="16" height="16" fill="white"/>
</clipPath>
</defs>
</svg>
