<svg width="17" height="17" viewBox="0 0 17 17" fill="none" xmlns="http://www.w3.org/2000/svg">
<path d="M5.67409 5.67299L10.346 10.3449M7.00891 13.6819L13.683 7.00781C13.9949 6.70218 14.243 6.33777 14.4132 5.93563C14.5833 5.53349 14.6721 5.10161 14.6743 4.66497C14.6765 4.22832 14.5921 3.79557 14.426 3.39173C14.26 2.98789 14.0155 2.62099 13.7067 2.31223C13.398 2.00347 13.031 1.75898 12.6272 1.5929C12.2234 1.42682 11.7906 1.34244 11.354 1.34465C10.9173 1.34685 10.4855 1.4356 10.0833 1.60575C9.68118 1.7759 9.31676 2.02408 9.01114 2.33594L2.33704 9.01004C2.02518 9.31566 1.777 9.68008 1.60685 10.0822C1.43669 10.4844 1.34795 10.9162 1.34575 11.3529C1.34354 11.7895 1.42792 12.2223 1.594 12.6261C1.76008 13.03 2.00457 13.3969 2.31333 13.7056C2.62209 14.0144 2.98899 14.2589 3.39283 14.4249C3.79666 14.591 4.22942 14.6754 4.66606 14.6732C5.10271 14.671 5.53459 14.5822 5.93673 14.4121C6.33886 14.2419 6.70328 13.9938 7.00891 13.6819Z" stroke="black" stroke-width="1.3" stroke-linecap="round" stroke-linejoin="round"/>
</svg>
